<?xml version="1.0" encoding="UTF-8"?>
<svg id="Ebene_2" xmlns="http://www.w3.org/2000/svg" version="1.1" viewBox="0 0 204 270">
  <!-- Generator: Adobe Illustrator 29.7.1, SVG Export Plug-In . SVG Version: 2.1.1 Build 8)  -->
  <defs>
    <style>
      .st0, .st1 {
        stroke: #000;
        stroke-miterlimit: 10;
      }

      .st1 {
        fill: #030303;
      }
    </style>
  </defs>
  <path class="st1" d="M26.39,120"/>
  <path class="st1" d="M26.56,125.31"/>
  <path class="st1" d="M26.39,130.92"/>
  <path class="st1" d="M26.56,136.24"/>
  <path class="st1" d="M26.56,147.16"/>
  <g>
    <path d="M170.54,58.81c-8.48-6.47-6.27,4.06-7.24,9.29-6.1,32.91-21.54,34.76-42.8,55.72-29.3,28.87-31.26,46.64-22.39,86.7,1.2,5.41,4.82,14.01,5.42,18.6.25,1.87-29.9-14.67-30.7-15.04-3.6-1.67-11.54-6.14-11.81-8.81,0,0-.26-165.87-.26-167.48,14.02-6.4,47.31-20.12,48.25-20.64,0,0,1.97-4.53.45-6.46,0,0-53.95,24.2-53.95,24.21-.22,2.72-.19,42.77-.39,45.44.07,1.42-13.05,5.85-18.62,8.02-.03,0-.05.02-.07.03-2.76,1.43-4.52,1.18-4.54,4.05-.2,8.34-.59,16.67-.69,21.6-.06,2.95-.16,5.69-.1,21.74,0,4.13.38,17.02.98,30.87.77,17.81,13.32,38.13,27.13,48.65,18.49,14.08,45.87,26.9,66.57,37.43,2.29,1.16,8.2,5.39,9.87,2.55,2-4.76.79-6.04-1.23-7.42-2.18-1.49-3.96-3.51-5.05-5.91-18.43-40.33,17.74-51,33.82-67.32,36.67-30.26,46.97-85.61,7.38-115.82h-.03,0ZM55.41,195.58c0,.81.02,2.51.1,4.84.05,1.56-1.93,2.27-2.88,1.03-3.25-4.24-4.1-5.15-6.01-7.61-2.6-3.36-3.51-6.18-4.25-7.56-.34-.64-1.33-3.16-2.16-5.84s-1.72-6.01-2-8.1c-.37-2.77-.61-9.69-.85-14.68s-.42-10.28-.52-14.26c-.33-13.15.17-33.72.66-46.69.06-1.6,1.01-3.02,2.46-3.68,3.83-1.74,8.27-3.4,12.84-4.95.94-.32,2.67.25,2.7,1.25l-.1,107.36v-1.11h.01ZM124.04,198.87c.47-26.27,11.05-39.43,16.25-45.24,5.37-6.33,11.81-14.12,16.3-19.4,1.65-3.07-1.29-3.87-3.07-2.47-1.6,1.26-4.42,4.94-17.07,19.07-.32.36-3.16,3.75-5.94,7.79-1.33,1.95-5.85,7.27-8.84,16.8-1.71,5.44-3.18,15.9-3.17,17.26.02,8.1-.73,34.78-.73,34.78l-.03-.03c.04,1.67-2.16,2.29-3.02.85-1.26-2.11-2.04-4.71-2.75-6.72-18.73-52.18-8.28-71.35,29.11-107.15,6.17-5.91,15.61-13.86,21.92-23.52,3.68-5.64,5.62-10.84,7.03-16.68.6-4.39.88-6.16,1.09-7.23.06-.3.42-.41.64-.2,1.09,1.05,3,3.18,3.65,3.93.52.62,7.05,10.25,7.8,11.8,5.65,11.48,7.17,29.85,2.41,46.34-9.05,31.34-37.44,48.88-59.51,69.76,0,0-2.08,1.79-2.06.26h-.01Z"/>
    <path d="M147.63,94.24h-3.14c-.83,0-1.5-.75-1.5-1.69v-58.83h6.14v58.83c0,.93-.67,1.69-1.5,1.69Z"/>
    <path d="M79.68,221.9h-3.74c-.98,0-1.78-1.88-1.78-4.2V70.88c0-2.32.8-4.2,1.78-4.2h3.74c.98,0,1.85,1.8,1.78,4.2v146.83c0,2.32-.8,4.2-1.78,4.2h0Z"/>
    <polyline points="148.12 38.79 108.83 16.87 109.43 10.69 149.13 33.73"/>
    <path d="M110.53,125.17h-3.14c-.83,0-1.5-1.38-1.5-3.09V13.9h6.14v108.18c0,1.71-.67,3.09-1.5,3.09Z"/>
    <path class="st0" d="M40.55,147.25"/>
    <path class="st0" d="M40.86,152.34"/>
    <path class="st0" d="M40.55,158.12"/>
    <polygon points="138.47 48.63 116.55 36.7 116.57 27.59 138.47 39.9 138.47 48.63"/>
    <polygon points="138.47 79.64 116.55 67.71 116.57 58.61 138.47 70.92 138.47 79.64"/>
    <polygon points="138.47 64.14 116.55 52.21 116.57 43.1 138.47 55.41 138.47 64.14"/>
    <polygon points="138.47 95.15 116.55 83.22 116.57 74.12 138.47 86.42 138.47 95.15"/>
  </g>
</svg>